<svg xmlns="http://www.w3.org/2000/svg" xmlns:xlink="http://www.w3.org/1999/xlink" width="1000" zoomAndPan="magnify" viewBox="0 0 750 749.999995" height="1000" preserveAspectRatio="xMidYMid meet" version="1.0"><path fill="#ffffff" d="M 740.929688 316.082031 L 623.851562 198.894531 C 613.492188 188.527344 596.691406 188.527344 586.332031 198.894531 C 575.984375 209.265625 575.984375 226.074219 586.332031 236.441406 L 658.132812 308.300781 L 456.742188 308.300781 L 456.742188 37.457031 C 456.742188 27.503906 452.832031 18.136719 445.835938 11.128906 C 438.917969 4.195312 429.332031 0.214844 419.53125 0.214844 L 93.09375 0.214844 L 281.070312 91.667969 C 317.6875 109.515625 341.347656 147.351562 341.347656 188.136719 L 341.347656 610.664062 L 419.523438 610.664062 C 429.324219 610.664062 438.910156 606.679688 445.832031 599.746094 C 452.824219 592.667969 456.734375 583.300781 456.734375 573.34375 L 456.734375 414.511719 L 415.484375 414.511719 C 400.835938 414.511719 388.957031 402.621094 388.957031 387.960938 C 388.957031 373.296875 400.828125 361.410156 415.484375 361.410156 L 658.125 361.410156 L 586.324219 433.265625 C 575.976562 443.636719 575.976562 460.445312 586.324219 470.8125 C 591.503906 476 598.296875 478.59375 605.09375 478.59375 C 611.871094 478.59375 618.664062 476 623.84375 470.8125 L 740.929688 353.636719 C 745.910156 348.65625 748.703125 341.902344 748.703125 334.867188 C 748.703125 327.828125 745.910156 321.058594 740.929688 316.082031 Z M 740.929688 316.082031 " fill-opacity="1" fill-rule="nonzero"/><path fill="#ffffff" d="M 257.859375 139.457031 L 9.679688 18.652344 C 6.429688 24.183594 4.367188 30.601562 4.367188 37.457031 L 4.367188 579.761719 C 4.367188 604.542969 18.816406 627.550781 41.0625 638.394531 L 275.824219 752.636719 C 278.558594 753.964844 281.652344 753.816406 284.234375 752.195312 C 286.738281 750.644531 288.277344 747.769531 288.277344 744.820312 L 288.277344 188.136719 C 288.277344 167.558594 276.347656 148.457031 257.859375 139.457031 Z M 240.832031 452.019531 C 240.832031 466.699219 228.972656 478.574219 214.300781 478.574219 C 199.632812 478.574219 187.773438 466.699219 187.773438 452.019531 L 187.773438 361.527344 C 187.773438 346.851562 199.632812 334.976562 214.300781 334.976562 C 228.972656 334.976562 240.832031 346.851562 240.832031 361.527344 Z M 240.832031 452.019531 " fill-opacity="1" fill-rule="nonzero"/></svg>